<svg xmlns="http://www.w3.org/2000/svg" viewBox="0 0 357.49 128.7"><defs><style>.cls-1{fill:#377dff;}.cls-2{fill:#fff;}</style></defs><title>itnews</title><g id="Layer_2" data-name="Layer 2"><g id="Layer_1-2" data-name="Layer 1"><path class="cls-1" d="M40.05,97.1c-1.65,0-4.67-.64-6.43-5-.13-.3-.25-.6-.35-.91l-.72.78A16.55,16.55,0,0,1,20.3,97.1,16.84,16.84,0,0,1,8,92L7.91,92A17.59,17.59,0,0,1,3,79.6V77.9a7.79,7.79,0,0,1,8-8c4.95,0,7.9,3,7.9,8v1.7a1.6,1.6,0,0,0,.45,1.21,1.35,1.35,0,0,0,1.9,0,1.6,1.6,0,0,0,.45-1.21V77.2c0-3.22-.63-4.9-1.86-5-4.93-.49-7.74-3.37-7.74-7.89,0-4.69,3-7.68,8-8,.14,0,.45-.12.87-1l.3-.6a6.82,6.82,0,0,0,.38-3v-.1a4.07,4.07,0,0,1-.1-.9V48.9a3.64,3.64,0,0,1,0-.57c-.31-1-.75-1-1.34-1a1.13,1.13,0,0,0-.95.39,1.63,1.63,0,0,0-.45,1.21v1.9c0,5-2.95,7.9-7.9,7.9s-8-3-8-7.9V48.9A17.26,17.26,0,0,1,7.93,36.63,16.7,16.7,0,0,1,20.3,31.4a16.41,16.41,0,0,1,9.35,2.73A16.93,16.93,0,0,1,39,31.4a16.17,16.17,0,0,1,12.26,5.22,16.85,16.85,0,0,1,5,12.28V79.6A17.65,17.65,0,0,1,52,91.8,16.38,16.38,0,0,1,40.4,97.09ZM34.34,64c.23.34.46.7.7,1.08A20.64,20.64,0,0,1,37.48,74a12.4,12.4,0,0,1,2.92-1.59V48.9A1.65,1.65,0,0,0,40,47.69a1.13,1.13,0,0,0-1-.39c-.72,0-1.14,0-1.4,1.19V51.1A26,26,0,0,1,34.34,64Z"/><path class="cls-2" d="M39,34.4a13.19,13.19,0,0,1,10.1,4.3,13.89,13.89,0,0,1,4.2,10.2V79.6a14.71,14.71,0,0,1-3.5,10.2,13.51,13.51,0,0,1-9.6,4.3h-.15q-2.38,0-3.65-3.1a13.12,13.12,0,0,1-1-5.3q0-9.4,8-11.1V48.9a4.62,4.62,0,0,0-1.25-3.25A4.1,4.1,0,0,0,39,44.3c-2.47,0-3.93,1.3-4.4,3.9v2.9a22.63,22.63,0,0,1-3.9,13.1,7.83,7.83,0,0,1,.85,1c.3.43.62.92.95,1.45q2.1,3.6,2.1,10.6v2.3a14.21,14.21,0,0,1-4.2,10.3,13.55,13.55,0,0,1-10.1,4.2,13.89,13.89,0,0,1-10.2-4.2A14.62,14.62,0,0,1,6,79.6V77.9a4.8,4.8,0,0,1,5-5q4.9,0,4.9,5v1.7a4.62,4.62,0,0,0,1.25,3.25A4.1,4.1,0,0,0,20.3,84.2a4.1,4.1,0,0,0,3.15-1.35A4.62,4.62,0,0,0,24.7,79.6V77.2q0-7.61-4.6-8c-3.33-.33-5-2-5-4.9q0-4.69,5.3-5a4.12,4.12,0,0,0,3.3-2.6l.3-.6a9.62,9.62,0,0,0,.7-4.3v-.5a1.57,1.57,0,0,1-.1-.5V48.9a.85.85,0,0,1,.1-.4v-.3q-.79-3.9-4.4-3.9a4.1,4.1,0,0,0-3.15,1.35A4.62,4.62,0,0,0,15.9,48.9v1.9q0,4.91-4.9,4.9T6,50.8V48.9a14.31,14.31,0,0,1,4.1-10.2,13.71,13.71,0,0,1,10.2-4.3,13.23,13.23,0,0,1,9.3,3.5A14.08,14.08,0,0,1,39,34.4m1.5,49.3a2.38,2.38,0,0,0,2.1-1.35,5.35,5.35,0,0,0,.8-2.75V75.9q-2.3.6-3.3,3.6a8.31,8.31,0,0,0-.5,2.5c0,1.13.3,1.7.9,1.7M39,28.4a19.92,19.92,0,0,0-9.33,2.24A19.6,19.6,0,0,0,20.3,28.4,19.81,19.81,0,0,0,5.81,34.51l0,0,0,0A20.17,20.17,0,0,0,0,48.9v1.9C0,56.87,3.63,61,9.38,61.61A13,13,0,0,0,9.1,64.3,12.35,12.35,0,0,0,9.39,67a10.67,10.67,0,0,0-6.24,3.06A10.83,10.83,0,0,0,0,77.9v1.7A20.48,20.48,0,0,0,5.71,94l.07.08.08.07a19.72,19.72,0,0,0,14.44,6,19.75,19.75,0,0,0,12.11-4,9.34,9.34,0,0,0,7.64,4h.54a19.31,19.31,0,0,0,13.67-6.28c3.35-3.73,5-8.51,5-14.21V48.9a19.77,19.77,0,0,0-5.88-14.37A19.32,19.32,0,0,0,39,28.4Z"/><path class="cls-1" d="M41.8,37.8a14.82,14.82,0,0,1-10.13-3.7,15.71,15.71,0,0,1-5.13-9.51l-.24-1.44V18.5A15,15,0,0,1,30.88,7.58,15,15,0,0,1,41.8,3,15.26,15.26,0,0,1,52.56,7.42,14.4,14.4,0,0,1,57.1,18.1v6.25l0,.24a15.71,15.71,0,0,1-5.13,9.51A14.82,14.82,0,0,1,41.8,37.8Zm.1-15.3V18.2h-.29a2.36,2.36,0,0,0,0,.29v3.92s0,0,0,.07Z"/><path class="cls-2" d="M41.8,6a12.28,12.28,0,0,1,8.7,3.6,11.41,11.41,0,0,1,3.6,8.5v6A12.77,12.77,0,0,1,50,31.85,11.88,11.88,0,0,1,41.8,34.8a11.88,11.88,0,0,1-8.15-2.95A12.77,12.77,0,0,1,29.5,24.1l-.2-1.2V18.5A12,12,0,0,1,33,9.7,12,12,0,0,1,41.8,6m0,19.5c2.07,0,3.1-1,3.1-2.9V18c0-1.87-1-2.8-3.1-2.8s-3.2,1.1-3.2,3.3v4.1a2.88,2.88,0,0,0,3.2,2.9M41.8,0a18.11,18.11,0,0,0-13,5.46,18.11,18.11,0,0,0-5.46,13v4.9l.08.49.2,1.2a18.71,18.71,0,0,0,6.1,11.26A17.82,17.82,0,0,0,41.8,40.8a17.77,17.77,0,0,0,12.11-4.45A18.67,18.67,0,0,0,60,25.09l.08-.49V18.1A17.47,17.47,0,0,0,54.68,5.3l0,0,0,0A18.14,18.14,0,0,0,41.8,0Z"/><path class="cls-1" d="M48,125.7a11.73,11.73,0,0,1-4.51-.88,11.48,11.48,0,0,1-3.66-2.45,12,12,0,0,1-2.46-3.58,11,11,0,0,1-1-4.59v-17a8,8,0,1,1,16,0V110c3.85.65,6.1,3.48,6.1,7.85,0,5-3,7.9-7.9,7.9Z"/><path class="cls-2" d="M44.4,92.2a4.8,4.8,0,0,1,5,5v15.6h1.2q4.9,0,4.9,5t-4.9,4.9H48a8.62,8.62,0,0,1-3.35-.65,8.3,8.3,0,0,1-2.7-1.8,9.13,9.13,0,0,1-1.85-2.7,8,8,0,0,1-.7-3.35v-17a4.8,4.8,0,0,1,5-5m0-6a10.78,10.78,0,0,0-11,11v17A14,14,0,0,0,34.63,120a15.25,15.25,0,0,0,3.07,4.48,14.36,14.36,0,0,0,4.62,3.09A14.53,14.53,0,0,0,48,128.7h2.6c6.62,0,10.9-4.28,10.9-10.9,0-4.88-2.29-8.5-6.1-10.1V97.2a10.8,10.8,0,0,0-11-11Z"/><path class="cls-1" d="M77.5,97.1A16.84,16.84,0,0,1,65.18,92L65.1,92A17.62,17.62,0,0,1,60.2,79.6V48.9a17.26,17.26,0,0,1,4.93-12.27A16.7,16.7,0,0,1,77.5,31.4a16.17,16.17,0,0,1,12.26,5.22,16.85,16.85,0,0,1,5,12.28v1.9c0,5-3,7.9-7.9,7.9s-8-3-8-7.9V48.9a1.65,1.65,0,0,0-.45-1.21,1.35,1.35,0,0,0-1.9,0,1.63,1.63,0,0,0-.45,1.21V79.6a1.6,1.6,0,0,0,.45,1.21,1.35,1.35,0,0,0,1.9,0,1.6,1.6,0,0,0,.45-1.21V77.9a7.79,7.79,0,0,1,8-8c4.95,0,7.9,3,7.9,8v1.7A17.17,17.17,0,0,1,89.74,92,16.51,16.51,0,0,1,77.5,97.1Z"/><path class="cls-2" d="M77.5,34.4a13.21,13.21,0,0,1,10.1,4.3,13.89,13.89,0,0,1,4.2,10.2v1.9c0,3.27-1.64,4.9-4.9,4.9s-5-1.63-5-4.9V48.9a4.62,4.62,0,0,0-1.25-3.25,4.35,4.35,0,0,0-6.3,0A4.58,4.58,0,0,0,73.1,48.9V79.6a4.58,4.58,0,0,0,1.25,3.25,4.35,4.35,0,0,0,6.3,0A4.62,4.62,0,0,0,81.9,79.6V77.9a4.8,4.8,0,0,1,5-5c3.26,0,4.9,1.67,4.9,5v1.7a14.21,14.21,0,0,1-4.2,10.3,13.57,13.57,0,0,1-10.1,4.2,13.89,13.89,0,0,1-10.2-4.2,14.58,14.58,0,0,1-4.1-10.3V48.9a14.26,14.26,0,0,1,4.1-10.2,13.71,13.71,0,0,1,10.2-4.3m0-6A19.81,19.81,0,0,0,63,34.51l0,0,0,0A20.17,20.17,0,0,0,57.2,48.9V79.6A20.48,20.48,0,0,0,62.91,94l.07.08.08.07a20.35,20.35,0,0,0,28.83,0A20.07,20.07,0,0,0,97.8,79.6V77.9c0-6.68-4.28-11-10.9-11A10.82,10.82,0,0,0,79.1,70V58.93a11.14,11.14,0,0,0,7.8,2.77c6.62,0,10.9-4.28,10.9-10.9V48.9a19.77,19.77,0,0,0-5.88-14.37A19.32,19.32,0,0,0,77.5,28.4Z"/><path class="cls-1" d="M79.9,38.5a14.62,14.62,0,0,1-10.85-4.61A15.15,15.15,0,0,1,64.6,23V18.7A15.39,15.39,0,0,1,69,7.84,14.65,14.65,0,0,1,79.9,3.2,15.17,15.17,0,0,1,95.17,16.73a7.65,7.65,0,0,1-2,6.42A8.11,8.11,0,0,1,87.1,25.7c-.32,0-.63,0-.93,0A7.69,7.69,0,0,1,87.8,30.5C87.8,35.51,84.84,38.5,79.9,38.5Zm.89-15.75a5,5,0,0,1-.29-.45v.4Z"/><path class="cls-2" d="M79.9,6.2A12.18,12.18,0,0,1,92.2,17.1a4.7,4.7,0,0,1-1.2,4,5.09,5.09,0,0,1-3.9,1.6q-4.2,0-4.8-4.3c-.2-1.53-1-2.3-2.4-2.3-1.6,0-2.4.87-2.4,2.6V23a2.29,2.29,0,0,0,2.1,2.6c3.46.47,5.2,2.1,5.2,4.9q0,5-4.9,5a11.68,11.68,0,0,1-8.7-3.7A12.19,12.19,0,0,1,67.6,23V18.7a12.41,12.41,0,0,1,3.6-8.8,11.68,11.68,0,0,1,8.7-3.7m0-6a17.77,17.77,0,0,0-13,5.52l0,0,0,0A18.3,18.3,0,0,0,61.6,18.7V23a18.3,18.3,0,0,0,5.3,13,17.79,17.79,0,0,0,13,5.51c6.62,0,10.9-4.32,10.9-11a12,12,0,0,0-.22-2.3,10.89,10.89,0,0,0,4.8-3,10.74,10.74,0,0,0,2.77-8.84,18,18,0,0,0-6-11.6A17.89,17.89,0,0,0,79.9.2Z"/><path class="cls-1" d="M136.43,97.13a7.77,7.77,0,0,1-5.3-2,7.46,7.46,0,0,1-2-2.91,16.49,16.49,0,0,1-12,4.89A16.84,16.84,0,0,1,104.78,92L104.7,92A17.62,17.62,0,0,1,99.8,79.6V48.9a17.26,17.26,0,0,1,4.93-12.27A16.7,16.7,0,0,1,117.1,31.4a16.44,16.44,0,0,1,9.35,2.73,16.9,16.9,0,0,1,9.35-2.73,16.17,16.17,0,0,1,12.26,5.22,16.85,16.85,0,0,1,5,12.28V79.6A18.16,18.16,0,0,1,152,86.07a17.11,17.11,0,0,1-3.27,5.38,16.8,16.8,0,0,1-5,3.83,18.18,18.18,0,0,1-6.33,1.8C137,97.11,136.7,97.13,136.43,97.13Zm-2-17.53c0,.64,0,1.26-.09,1.88a10.08,10.08,0,0,1,1.63-.27.93.93,0,0,0,.79-.41,1.82,1.82,0,0,0,.47-1.2V48.9a1.65,1.65,0,0,0-.45-1.21,1.14,1.14,0,0,0-.95-.39c-.73,0-1.14,0-1.4,1.19ZM117.1,47.3a1.13,1.13,0,0,0-.95.39,1.63,1.63,0,0,0-.45,1.21V79.6a1.6,1.6,0,0,0,.45,1.21,1.13,1.13,0,0,0,.95.39,1.14,1.14,0,0,0,1-.39,1.6,1.6,0,0,0,.45-1.21V51.67a3.57,3.57,0,0,1-.1-.87V48.9a3.64,3.64,0,0,1,0-.57C118.13,47.3,117.69,47.3,117.1,47.3Z"/><path class="cls-2" d="M135.8,34.4a13.21,13.21,0,0,1,10.1,4.3,13.89,13.89,0,0,1,4.2,10.2V79.6a15.14,15.14,0,0,1-.95,5.4,14.31,14.31,0,0,1-2.7,4.45,13.87,13.87,0,0,1-4.15,3.15,15.28,15.28,0,0,1-5.3,1.5,5.44,5.44,0,0,1-.57,0,4.74,4.74,0,0,1-4.83-4.93c0-3.07,1.53-4.73,4.6-5a3.9,3.9,0,0,0,2.85-1.5,4.8,4.8,0,0,0,1.15-3.1V48.9A4.62,4.62,0,0,0,139,45.65a4.13,4.13,0,0,0-3.15-1.35q-3.7,0-4.4,3.9V79.6a14.21,14.21,0,0,1-4.2,10.3,13.57,13.57,0,0,1-10.1,4.2,13.89,13.89,0,0,1-10.2-4.2,14.58,14.58,0,0,1-4.1-10.3V48.9a14.26,14.26,0,0,1,4.1-10.2,13.71,13.71,0,0,1,10.2-4.3,13.26,13.26,0,0,1,9.3,3.5,14.06,14.06,0,0,1,9.4-3.5M117.1,84.2a4.13,4.13,0,0,0,3.15-1.35,4.62,4.62,0,0,0,1.25-3.25V51.2a.85.85,0,0,1-.1-.4V48.9a.85.85,0,0,1,.1-.4v-.3c-.54-2.6-2-3.9-4.4-3.9A4.1,4.1,0,0,0,114,45.65a4.58,4.58,0,0,0-1.25,3.25V79.6A4.58,4.58,0,0,0,114,82.85a4.1,4.1,0,0,0,3.15,1.35m18.7-55.8a19.86,19.86,0,0,0-9.33,2.24,20.41,20.41,0,0,0-23.86,3.87l0,0,0,0A20.13,20.13,0,0,0,96.8,48.9V79.6A20.48,20.48,0,0,0,102.51,94l.07.08.08.07a20.45,20.45,0,0,0,25.77,2.53c.22.24.46.47.7.69a10.71,10.71,0,0,0,7.3,2.77c.36,0,.72,0,1.09,0h.1A21.45,21.45,0,0,0,145,98a19.94,19.94,0,0,0,5.93-4.51,20.3,20.3,0,0,0,3.85-6.33,21.08,21.08,0,0,0,1.34-7.53V48.9a19.74,19.74,0,0,0-5.89-14.37A19.28,19.28,0,0,0,135.8,28.4Z"/><path class="cls-1" d="M138.6,37.8a14.86,14.86,0,0,1-10.14-3.7,15.74,15.74,0,0,1-5.12-9.51l-.24-1.44V18.5a15,15,0,0,1,4.57-10.92A15,15,0,0,1,138.6,3a15.28,15.28,0,0,1,10.76,4.42A14.4,14.4,0,0,1,153.9,18.1v6.25l0,.24a15.76,15.76,0,0,1-5.13,9.51A14.85,14.85,0,0,1,138.6,37.8Z"/><path class="cls-2" d="M138.6,6a12.32,12.32,0,0,1,8.7,3.6,11.41,11.41,0,0,1,3.6,8.5v6a12.82,12.82,0,0,1-4.15,7.75,12.73,12.73,0,0,1-16.3,0,12.72,12.72,0,0,1-4.15-7.75l-.2-1.2V18.5a12,12,0,0,1,3.7-8.8A12,12,0,0,1,138.6,6m-3.2,13.6a7.78,7.78,0,0,1,3.2-.9,7.23,7.23,0,0,1,3.1.7V18c0-1.87-1-2.8-3.1-2.8s-3.2,1.1-3.2,3.3v1.1m3.2,5.9a2.77,2.77,0,0,0,3.1-2.9,3.88,3.88,0,0,0-2.34-.64,6.68,6.68,0,0,0-.76,0,6.1,6.1,0,0,0-3.1,1.1c.26,1.6,1.3,2.4,3.1,2.4m0-25.5a18.11,18.11,0,0,0-13,5.46,18.07,18.07,0,0,0-5.46,13v4.9l.08.49.2,1.2a18.66,18.66,0,0,0,6.1,11.26,18.72,18.72,0,0,0,24.23,0,18.67,18.67,0,0,0,6.11-11.26l.08-.49V18.1a17.51,17.51,0,0,0-5.42-12.8l0,0,0,0A18.1,18.1,0,0,0,138.6,0Z"/><path d="M220,97.1a16.91,16.91,0,0,1-9.4-2.76A17.44,17.44,0,0,1,188.88,92L188.8,92a17.62,17.62,0,0,1-4.9-12.35V77.9a7.79,7.79,0,0,1,8-8c4.94,0,7.9,3,7.9,8v1.7a1.6,1.6,0,0,0,.45,1.21,1.13,1.13,0,0,0,.95.39,1.14,1.14,0,0,0,1-.39,1.6,1.6,0,0,0,.45-1.21V48.9a1.62,1.62,0,0,0-.46-1.21,1.11,1.11,0,0,0-.94-.39,1.13,1.13,0,0,0-.95.39,1.63,1.63,0,0,0-.45,1.21v1.9c0,5-3,7.9-7.9,7.9s-8-3-8-7.9V48.9a17.22,17.22,0,0,1,4.93-12.27A16.69,16.69,0,0,1,201.2,31.4a16.19,16.19,0,0,1,12.26,5.22,16.4,16.4,0,0,1,1.31,1.47,8.23,8.23,0,0,1,1.86-3.76,7.28,7.28,0,0,1,5.67-2.53c4.29,0,8.15,2.18,11.47,6.46A17.76,17.76,0,0,1,237.3,48.9V79.6A17.17,17.17,0,0,1,232.24,92,16.55,16.55,0,0,1,220,97.1Zm-1.5-20.45a6,6,0,0,1,.1,1.25v1.7a1.6,1.6,0,0,0,.45,1.21,1.13,1.13,0,0,0,.95.39,1.14,1.14,0,0,0,.95-.39,1.61,1.61,0,0,0,.45-1.21V48.9c0-1.17-.35-1.32-1-1.51a9.38,9.38,0,0,1-2-.82,19.71,19.71,0,0,1,.14,2.33Z"/><path class="cls-2" d="M201.2,34.4a13.21,13.21,0,0,1,10.1,4.3,13.89,13.89,0,0,1,4.2,10.2V77.1a1.75,1.75,0,0,1,.1.8v1.7a4.58,4.58,0,0,0,1.25,3.25,4.35,4.35,0,0,0,6.3,0,4.62,4.62,0,0,0,1.25-3.25V48.9a4.11,4.11,0,0,0-3.2-4.4,4.4,4.4,0,0,1-3.6-4.6,5.3,5.3,0,0,1,1.3-3.6,4.27,4.27,0,0,1,3.4-1.5q5,0,9.1,5.3a14.69,14.69,0,0,1,2.9,8.8V79.6a14.21,14.21,0,0,1-4.2,10.3A13.57,13.57,0,0,1,220,94.1a14.06,14.06,0,0,1-9.4-3.5,14.1,14.1,0,0,1-9.4,3.5A13.89,13.89,0,0,1,191,89.9a14.58,14.58,0,0,1-4.1-10.3V77.9a4.8,4.8,0,0,1,5-5c3.26,0,4.9,1.67,4.9,5v1.7a4.58,4.58,0,0,0,1.25,3.25,4.35,4.35,0,0,0,6.3,0,4.62,4.62,0,0,0,1.25-3.25V48.9a4.62,4.62,0,0,0-1.25-3.25,4.35,4.35,0,0,0-6.3,0,4.58,4.58,0,0,0-1.25,3.25v1.9c0,3.27-1.64,4.9-4.9,4.9s-5-1.63-5-4.9V48.9A14.26,14.26,0,0,1,191,38.7a13.71,13.71,0,0,1,10.2-4.3m0-6a19.81,19.81,0,0,0-14.49,6.11l0,0,0,0A20.16,20.16,0,0,0,180.9,48.9v1.9c0,6.62,4.31,10.9,11,10.9A11,11,0,0,0,199.6,59V69.67a11,11,0,0,0-7.7-2.77,10.78,10.78,0,0,0-11,11v1.7A20.48,20.48,0,0,0,186.61,94l.07.08.07.07a20.5,20.5,0,0,0,23.85,3.68,20.34,20.34,0,0,0,23.79-3.73A20.07,20.07,0,0,0,240.3,79.6V48.9a20.63,20.63,0,0,0-4-12.32l-.06-.08-.06-.07c-4.88-6.31-10.22-7.63-13.84-7.63a10.33,10.33,0,0,0-7.94,3.57c-.16.18-.3.37-.45.55A19.32,19.32,0,0,0,201.2,28.4Z"/><path d="M276.33,97.13a7.77,7.77,0,0,1-5.3-2,7.46,7.46,0,0,1-2-2.91,16.49,16.49,0,0,1-12,4.89A16.86,16.86,0,0,1,244.67,92L244.6,92a17.62,17.62,0,0,1-4.9-12.35V48.9a17.25,17.25,0,0,1,4.92-12.27A16.72,16.72,0,0,1,257,31.4a16.44,16.44,0,0,1,9.35,2.73,16.9,16.9,0,0,1,9.35-2.73A16.15,16.15,0,0,1,288,36.62,16.82,16.82,0,0,1,293,48.9V79.6a18.16,18.16,0,0,1-1.15,6.47,17.11,17.11,0,0,1-3.27,5.38,16.8,16.8,0,0,1-5,3.83,18.17,18.17,0,0,1-6.34,1.8C276.87,97.11,276.6,97.13,276.33,97.13Zm-2-17.53c0,.64,0,1.26-.09,1.88a10.46,10.46,0,0,1,1.63-.27,1,1,0,0,0,.8-.41,1.82,1.82,0,0,0,.47-1.2V48.9a1.62,1.62,0,0,0-.46-1.21,1.11,1.11,0,0,0-.94-.39c-.73,0-1.14,0-1.41,1.19ZM257,47.3a1.12,1.12,0,0,0-.95.39,1.63,1.63,0,0,0-.45,1.21V79.6a1.6,1.6,0,0,0,.45,1.21,1.12,1.12,0,0,0,.95.39,1.14,1.14,0,0,0,.95-.39,1.64,1.64,0,0,0,.45-1.21V51.67a3.58,3.58,0,0,1-.11-.87V48.9a3.66,3.66,0,0,1,0-.57C258,47.3,257.58,47.3,257,47.3Z"/><path class="cls-2" d="M275.7,34.4a13.17,13.17,0,0,1,10.09,4.3A13.86,13.86,0,0,1,290,48.9V79.6a14.92,14.92,0,0,1-1,5.4,13.86,13.86,0,0,1-6.84,7.6,15.28,15.28,0,0,1-5.3,1.5l-.57,0a4.73,4.73,0,0,1-4.83-4.93c0-3.07,1.53-4.73,4.6-5A3.9,3.9,0,0,0,279,82.7a4.8,4.8,0,0,0,1.15-3.1V48.9a4.62,4.62,0,0,0-1.25-3.25,4.13,4.13,0,0,0-3.15-1.35q-3.7,0-4.41,3.9V79.6a14.2,14.2,0,0,1-4.19,10.3A13.57,13.57,0,0,1,257,94.1a13.93,13.93,0,0,1-10.21-4.2,14.61,14.61,0,0,1-4.09-10.3V48.9a14.3,14.3,0,0,1,4.09-10.2A13.75,13.75,0,0,1,257,34.4a13.22,13.22,0,0,1,9.29,3.5,14.1,14.1,0,0,1,9.41-3.5M257,84.2a4.13,4.13,0,0,0,3.15-1.35,4.62,4.62,0,0,0,1.25-3.25V51.2a.86.86,0,0,1-.11-.4V48.9a.86.86,0,0,1,.11-.4v-.3c-.54-2.6-2-3.9-4.4-3.9a4.1,4.1,0,0,0-3.15,1.35,4.58,4.58,0,0,0-1.25,3.25V79.6a4.58,4.58,0,0,0,1.25,3.25A4.1,4.1,0,0,0,257,84.2m18.7-55.8a19.86,19.86,0,0,0-9.33,2.24A19.62,19.62,0,0,0,257,28.4a19.85,19.85,0,0,0-14.5,6.11l0,0,0,0A20.16,20.16,0,0,0,236.7,48.9V79.6A20.48,20.48,0,0,0,242.41,94l.07.08.07.07a20.47,20.47,0,0,0,25.78,2.53,9.13,9.13,0,0,0,.7.69,10.71,10.71,0,0,0,7.3,2.77c.36,0,.72,0,1.09,0h.09a21.44,21.44,0,0,0,7.37-2.1,19.91,19.91,0,0,0,9.77-10.84A21.09,21.09,0,0,0,296,79.6V48.9a19.72,19.72,0,0,0-5.89-14.37A19.28,19.28,0,0,0,275.7,28.4Z"/><path d="M312.79,97.1A16.86,16.86,0,0,1,300.47,92L300.4,92a17.59,17.59,0,0,1-4.91-12.35V48.9a17.26,17.26,0,0,1,4.93-12.27,16.72,16.72,0,0,1,12.37-5.23,16.16,16.16,0,0,1,12.26,5.22,16.81,16.81,0,0,1,5,12.28v1.9c0,5-2.95,7.9-7.9,7.9s-8-3-8-7.9V48.9a1.61,1.61,0,0,0-.45-1.21,1.13,1.13,0,0,0-.95-.39,1.11,1.11,0,0,0-.94.39,1.6,1.6,0,0,0-.46,1.21V79.6a1.6,1.6,0,0,0,.45,1.21,1.14,1.14,0,0,0,1,.39,1.13,1.13,0,0,0,.95-.39,1.6,1.6,0,0,0,.45-1.21V77.9a7.79,7.79,0,0,1,8-8c4.95,0,7.9,3,7.9,8v1.7A17.2,17.2,0,0,1,325,92,16.55,16.55,0,0,1,312.79,97.1Z"/><path class="cls-2" d="M312.79,34.4a13.18,13.18,0,0,1,10.1,4.3,13.89,13.89,0,0,1,4.2,10.2v1.9q0,4.91-4.9,4.9t-5-4.9V48.9a4.58,4.58,0,0,0-1.25-3.25,4.35,4.35,0,0,0-6.3,0,4.62,4.62,0,0,0-1.25,3.25V79.6a4.62,4.62,0,0,0,1.25,3.25,4.35,4.35,0,0,0,6.3,0,4.58,4.58,0,0,0,1.25-3.25V77.9a4.8,4.8,0,0,1,5-5q4.9,0,4.9,5v1.7a14.21,14.21,0,0,1-4.2,10.3,13.55,13.55,0,0,1-10.1,4.2,13.89,13.89,0,0,1-10.2-4.2,14.62,14.62,0,0,1-4.1-10.3V48.9a14.31,14.31,0,0,1,4.1-10.2,13.71,13.71,0,0,1,10.2-4.3m0-6a19.85,19.85,0,0,0-14.49,6.11l0,0,0,0a20.17,20.17,0,0,0-5.76,14.34V79.6A20.49,20.49,0,0,0,298.21,94l.07.08.07.07a20.36,20.36,0,0,0,28.84,0,20.06,20.06,0,0,0,5.9-14.49V77.9c0-6.68-4.27-11-10.9-11a10.84,10.84,0,0,0-7.8,3.12V58.93a11.16,11.16,0,0,0,7.8,2.77c6.63,0,10.9-4.28,10.9-10.9V48.9a19.77,19.77,0,0,0-5.88-14.37,19.3,19.3,0,0,0-14.42-6.13Z"/><path d="M315.19,38.5a14.65,14.65,0,0,1-10.85-4.61A15.15,15.15,0,0,1,299.89,23V18.7a15.39,15.39,0,0,1,4.42-10.86A14.68,14.68,0,0,1,315.19,3.2a15.18,15.18,0,0,1,15.28,13.53,7.69,7.69,0,0,1-2,6.42,8.11,8.11,0,0,1-6.09,2.55c-.31,0-.62,0-.92,0a7.73,7.73,0,0,1,1.62,4.84C323.09,35.51,320.14,38.5,315.19,38.5Zm.9-15.75q-.15-.21-.3-.45v.4Z"/><path class="cls-2" d="M315.19,6.2a12.18,12.18,0,0,1,12.3,10.9,4.7,4.7,0,0,1-1.2,4,5.09,5.09,0,0,1-3.9,1.6q-4.2,0-4.8-4.3c-.2-1.53-1-2.3-2.4-2.3-1.6,0-2.4.87-2.4,2.6V23a2.29,2.29,0,0,0,2.1,2.6q5.21.7,5.2,4.9,0,5-4.9,5a11.68,11.68,0,0,1-8.7-3.7,12.19,12.19,0,0,1-3.6-8.8V18.7a12.41,12.41,0,0,1,3.6-8.8,11.68,11.68,0,0,1,8.7-3.7m0-6a17.79,17.79,0,0,0-13,5.52l0,0,0,0a18.31,18.31,0,0,0-5.25,12.93V23a18.35,18.35,0,0,0,5.3,13,17.8,17.8,0,0,0,13,5.51c6.62,0,10.9-4.32,10.9-11a12,12,0,0,0-.21-2.3,10.86,10.86,0,0,0,4.79-3,10.72,10.72,0,0,0,2.78-8.84,18,18,0,0,0-6-11.6A17.91,17.91,0,0,0,315.19.2Z"/><path d="M344.79,97.1a9.83,9.83,0,0,1-9.9-9.9V78.6a9.84,9.84,0,0,1,9.7-9.7,9.89,9.89,0,0,1,6.94,2.65,9.21,9.21,0,0,1,3,7v8.7a9.79,9.79,0,0,1-2.72,7A9.4,9.4,0,0,1,344.79,97.1Zm0-34.8a9.68,9.68,0,0,1-7-2.8,9.55,9.55,0,0,1-2.91-7V43.9A9.69,9.69,0,0,1,337.72,37a9.33,9.33,0,0,1,6.87-3,9.71,9.71,0,0,1,6.92,2.78,9.34,9.34,0,0,1,3,6.92v8.8a9.72,9.72,0,0,1-2.8,6.9A9.43,9.43,0,0,1,344.79,62.3Z"/><path class="cls-2" d="M344.59,37a6.78,6.78,0,0,1,4.85,2,6.29,6.29,0,0,1,2.05,4.75v8.8a6.62,6.62,0,0,1-1.95,4.8,6.39,6.39,0,0,1-4.75,2,6.77,6.77,0,0,1-4.9-1.95,6.52,6.52,0,0,1-2-4.85V43.9a6.78,6.78,0,0,1,2-4.8,6.3,6.3,0,0,1,4.7-2.1m.2,16.3c.8,0,1.2-1,1.2-2.9V45.8c-.2-1.87-.66-2.8-1.4-2.8s-1.1,1-1.1,2.9v4.5c0,1.93.44,2.9,1.3,2.9m-.2,18.6a7,7,0,0,1,4.9,1.85,6.16,6.16,0,0,1,2,4.75v8.7a6.83,6.83,0,0,1-1.9,4.9,6.33,6.33,0,0,1-4.8,2,6.83,6.83,0,0,1-6.9-6.9V78.6a6.83,6.83,0,0,1,6.7-6.7m.2,16.3q1.2,0,1.2-3V80.6c-.2-1.87-.66-2.8-1.4-2.8s-1.1,1-1.1,2.9v4.5c0,2,.44,3,1.3,3m-.2-57.2a12.26,12.26,0,0,0-9,4,12.79,12.79,0,0,0-3.66,8.94v8.6a12.46,12.46,0,0,0,3.82,9.15,12.74,12.74,0,0,0,9.08,3.65,12.38,12.38,0,0,0,9-3.81,12.63,12.63,0,0,0,3.65-9V43.7a12.31,12.31,0,0,0-3.91-9.1,12.86,12.86,0,0,0-9-3.6Zm4.93,14.38ZM340,50.85Zm4.62,15.05a12.84,12.84,0,0,0-12.7,12.7v8.6a12.82,12.82,0,0,0,12.9,12.9,12.32,12.32,0,0,0,9.15-3.87,12.82,12.82,0,0,0,3.55-9V78.5a12.14,12.14,0,0,0-3.92-9.15,13,13,0,0,0-9-3.45ZM340,80.76Zm9.55,4.9Zm-9.54.06Z"/><path class="cls-1" d="M53.3,79.6a14.71,14.71,0,0,1-3.5,10.2,13.51,13.51,0,0,1-9.6,4.3c-1.67.07-2.93-1-3.8-3.1a13.12,13.12,0,0,1-1-5.3q0-9.4,8-11.1V48.9a4.62,4.62,0,0,0-1.25-3.25A4.1,4.1,0,0,0,39,44.3c-2.47,0-3.93,1.3-4.4,3.9v2.9a22.63,22.63,0,0,1-3.9,13.1,7.83,7.83,0,0,1,.85,1c.3.43.62.92.95,1.45q2.1,3.6,2.1,10.6v2.3a14.21,14.21,0,0,1-4.2,10.3,13.55,13.55,0,0,1-10.1,4.2,13.89,13.89,0,0,1-10.2-4.2A14.62,14.62,0,0,1,6,79.6V77.9a4.8,4.8,0,0,1,5-5q4.9,0,4.9,5v1.7a4.62,4.62,0,0,0,1.25,3.25A4.1,4.1,0,0,0,20.3,84.2a4.1,4.1,0,0,0,3.15-1.35A4.62,4.62,0,0,0,24.7,79.6V77.2q0-7.61-4.6-8c-3.33-.33-5-2-5-4.9q0-4.69,5.3-5a4.12,4.12,0,0,0,3.3-2.6l.3-.6a9.62,9.62,0,0,0,.7-4.3v-.5a1.57,1.57,0,0,1-.1-.5V48.9a.85.85,0,0,1,.1-.4v-.3q-.79-3.9-4.4-3.9a4.1,4.1,0,0,0-3.15,1.35A4.62,4.62,0,0,0,15.9,48.9v1.9q0,4.91-4.9,4.9T6,50.8V48.9a14.31,14.31,0,0,1,4.1-10.2,13.71,13.71,0,0,1,10.2-4.3,13.23,13.23,0,0,1,9.3,3.5A14.08,14.08,0,0,1,39,34.4a13.19,13.19,0,0,1,10.1,4.3,13.89,13.89,0,0,1,4.2,10.2Zm-9.9,0V75.9q-2.3.6-3.3,3.6a8.31,8.31,0,0,0-.5,2.5c0,1.13.3,1.7.9,1.7a2.38,2.38,0,0,0,2.1-1.35A5.35,5.35,0,0,0,43.4,79.6Z"/><path class="cls-1" d="M54.1,24.1A12.77,12.77,0,0,1,50,31.85,11.88,11.88,0,0,1,41.8,34.8a11.88,11.88,0,0,1-8.15-2.95A12.77,12.77,0,0,1,29.5,24.1l-.2-1.2V18.5A12,12,0,0,1,33,9.7,12,12,0,0,1,41.8,6a12.28,12.28,0,0,1,8.7,3.6,11.41,11.41,0,0,1,3.6,8.5Zm-9.2-1.5V18c0-1.87-1-2.8-3.1-2.8s-3.2,1.1-3.2,3.3v4.1a2.88,2.88,0,0,0,3.2,2.9C43.87,25.5,44.9,24.54,44.9,22.6Z"/><path class="cls-1" d="M55.5,117.8q0,4.9-4.9,4.9H48a8.62,8.62,0,0,1-3.35-.65,8.3,8.3,0,0,1-2.7-1.8,9.13,9.13,0,0,1-1.85-2.7,8,8,0,0,1-.7-3.35v-17a5,5,0,1,1,10,0v15.6h1.2Q55.51,112.8,55.5,117.8Z"/><path class="cls-1" d="M82.15,35.14c1.76-.65,2.65-2.19,2.65-4.64,0-2.8-1.74-4.43-5.2-4.9A2.29,2.29,0,0,1,77.5,23V18.7c0-1.73.8-2.6,2.4-2.6,1.4,0,2.2.77,2.4,2.3q.6,4.31,4.8,4.3A5.09,5.09,0,0,0,91,21.1a4.7,4.7,0,0,0,1.2-4A12.18,12.18,0,0,0,79.9,6.2a11.68,11.68,0,0,0-8.7,3.7,12.41,12.41,0,0,0-3.6,8.8V23a12.77,12.77,0,0,0,7.6,11.59,13.58,13.58,0,0,0-7.9,4.11,14.26,14.26,0,0,0-4.1,10.2V79.6a14.58,14.58,0,0,0,4.1,10.3,13.89,13.89,0,0,0,10.2,4.2,13.57,13.57,0,0,0,10.1-4.2,14.21,14.21,0,0,0,4.2-10.3V77.9c0-3.33-1.64-5-4.9-5a4.8,4.8,0,0,0-5,5v1.7a4.62,4.62,0,0,1-1.25,3.25,4.35,4.35,0,0,1-6.3,0A4.58,4.58,0,0,1,73.1,79.6V48.9a4.58,4.58,0,0,1,1.25-3.25,4.35,4.35,0,0,1,6.3,0A4.62,4.62,0,0,1,81.9,48.9v1.9c0,3.27,1.66,4.9,5,4.9s4.9-1.63,4.9-4.9V48.9a13.89,13.89,0,0,0-4.2-10.2A13,13,0,0,0,82.15,35.14Z"/><path class="cls-1" d="M151.1,79.6a15.14,15.14,0,0,1-.95,5.4,14.31,14.31,0,0,1-2.7,4.45,13.87,13.87,0,0,1-4.15,3.15,15.28,15.28,0,0,1-5.3,1.5,4.87,4.87,0,0,1-3.85-1.2,4.72,4.72,0,0,1-1.55-3.7c0-3.07,1.53-4.73,4.6-5a3.9,3.9,0,0,0,2.85-1.5,4.8,4.8,0,0,0,1.15-3.1V48.9A4.62,4.62,0,0,0,140,45.65a4.13,4.13,0,0,0-3.15-1.35q-3.7,0-4.4,3.9V79.6a14.21,14.21,0,0,1-4.2,10.3,13.57,13.57,0,0,1-10.1,4.2,13.89,13.89,0,0,1-10.2-4.2,14.58,14.58,0,0,1-4.1-10.3V48.9a14.26,14.26,0,0,1,4.1-10.2,13.71,13.71,0,0,1,10.2-4.3,13.26,13.26,0,0,1,9.3,3.5,14.06,14.06,0,0,1,9.4-3.5,13.21,13.21,0,0,1,10.1,4.3,13.89,13.89,0,0,1,4.2,10.2Zm-28.6,0V51.2a.85.85,0,0,1-.1-.4V48.9a.85.85,0,0,1,.1-.4v-.3c-.54-2.6-2-3.9-4.4-3.9A4.1,4.1,0,0,0,115,45.65a4.58,4.58,0,0,0-1.25,3.25V79.6A4.58,4.58,0,0,0,115,82.85a4.35,4.35,0,0,0,6.3,0A4.62,4.62,0,0,0,122.5,79.6Z"/><path class="cls-1" d="M151.9,24.1a12.82,12.82,0,0,1-4.15,7.75,12.73,12.73,0,0,1-16.3,0,12.72,12.72,0,0,1-4.15-7.75l-.2-1.2V18.5a12,12,0,0,1,3.7-8.8A12,12,0,0,1,139.6,6a12.32,12.32,0,0,1,8.7,3.6,11.41,11.41,0,0,1,3.6,8.5Zm-9.2-4.7V18c0-1.87-1-2.8-3.1-2.8s-3.2,1.1-3.2,3.3v1.1a7.78,7.78,0,0,1,3.2-.9A7.23,7.23,0,0,1,142.7,19.4Zm0,3.2a4.47,4.47,0,0,0-3.1-.6,6.1,6.1,0,0,0-3.1,1.1c.26,1.6,1.3,2.4,3.1,2.4A2.77,2.77,0,0,0,142.7,22.6Z"/><path d="M234.3,79.6a14.21,14.21,0,0,1-4.2,10.3A13.57,13.57,0,0,1,220,94.1a14.06,14.06,0,0,1-9.4-3.5,14.1,14.1,0,0,1-9.4,3.5A13.89,13.89,0,0,1,191,89.9a14.58,14.58,0,0,1-4.1-10.3V77.9a4.8,4.8,0,0,1,5-5c3.26,0,4.9,1.67,4.9,5v1.7a4.58,4.58,0,0,0,1.25,3.25,4.35,4.35,0,0,0,6.3,0,4.62,4.62,0,0,0,1.25-3.25V48.9a4.62,4.62,0,0,0-1.25-3.25,4.35,4.35,0,0,0-6.3,0,4.58,4.58,0,0,0-1.25,3.25v1.9c0,3.27-1.64,4.9-4.9,4.9s-5-1.63-5-4.9V48.9A14.26,14.26,0,0,1,191,38.7a13.71,13.71,0,0,1,10.2-4.3,13.21,13.21,0,0,1,10.1,4.3,13.89,13.89,0,0,1,4.2,10.2V77.1a1.75,1.75,0,0,1,.1.8v1.7a4.58,4.58,0,0,0,1.25,3.25,4.35,4.35,0,0,0,6.3,0,4.62,4.62,0,0,0,1.25-3.25V48.9a4.11,4.11,0,0,0-3.2-4.4,4.4,4.4,0,0,1-3.6-4.6,5.3,5.3,0,0,1,1.3-3.6,4.27,4.27,0,0,1,3.4-1.5q5,0,9.1,5.3a14.69,14.69,0,0,1,2.9,8.8Z"/><path d="M290,79.6a14.92,14.92,0,0,1-1,5.4,13.86,13.86,0,0,1-6.84,7.6,15.28,15.28,0,0,1-5.3,1.5A4.91,4.91,0,0,1,273,92.9a4.75,4.75,0,0,1-1.54-3.7c0-3.07,1.53-4.73,4.6-5A3.9,3.9,0,0,0,279,82.7a4.8,4.8,0,0,0,1.15-3.1V48.9a4.62,4.62,0,0,0-1.25-3.25,4.13,4.13,0,0,0-3.15-1.35q-3.7,0-4.41,3.9V79.6a14.2,14.2,0,0,1-4.19,10.3A13.57,13.57,0,0,1,257,94.1a13.93,13.93,0,0,1-10.21-4.2,14.61,14.61,0,0,1-4.09-10.3V48.9a14.3,14.3,0,0,1,4.09-10.2A13.75,13.75,0,0,1,257,34.4a13.22,13.22,0,0,1,9.29,3.5,14.1,14.1,0,0,1,9.41-3.5,13.17,13.17,0,0,1,10.09,4.3A13.86,13.86,0,0,1,290,48.9Zm-28.6,0V51.2a.86.86,0,0,1-.11-.4V48.9a.86.86,0,0,1,.11-.4v-.3c-.54-2.6-2-3.9-4.4-3.9a4.1,4.1,0,0,0-3.15,1.35,4.58,4.58,0,0,0-1.25,3.25V79.6a4.58,4.58,0,0,0,1.25,3.25,4.35,4.35,0,0,0,6.3,0A4.62,4.62,0,0,0,261.4,79.6Z"/><path d="M317.44,35.14c1.76-.65,2.65-2.19,2.65-4.64q0-4.2-5.2-4.9a2.29,2.29,0,0,1-2.1-2.6V18.7c0-1.73.8-2.6,2.4-2.6,1.4,0,2.2.77,2.4,2.3q.6,4.31,4.8,4.3a5.09,5.09,0,0,0,3.9-1.6,4.7,4.7,0,0,0,1.2-4,12.18,12.18,0,0,0-12.3-10.9,11.68,11.68,0,0,0-8.7,3.7,12.41,12.41,0,0,0-3.6,8.8V23a12.19,12.19,0,0,0,3.6,8.8,12.32,12.32,0,0,0,4,2.79,13.64,13.64,0,0,0-7.91,4.11,14.31,14.31,0,0,0-4.1,10.2V79.6a14.62,14.62,0,0,0,4.1,10.3,13.89,13.89,0,0,0,10.2,4.2,13.55,13.55,0,0,0,10.1-4.2,14.21,14.21,0,0,0,4.2-10.3V77.9q0-5-4.9-5a4.8,4.8,0,0,0-5,5v1.7a4.58,4.58,0,0,1-1.25,3.25,4.35,4.35,0,0,1-6.3,0,4.62,4.62,0,0,1-1.25-3.25V48.9a4.62,4.62,0,0,1,1.25-3.25,4.35,4.35,0,0,1,6.3,0,4.58,4.58,0,0,1,1.25,3.25v1.9q0,4.91,5,4.9t4.9-4.9V48.9a13.89,13.89,0,0,0-4.2-10.2A13,13,0,0,0,317.44,35.14Z"/><path d="M351.49,52.5a6.62,6.62,0,0,1-1.95,4.8,6.39,6.39,0,0,1-4.75,2,6.77,6.77,0,0,1-4.9-1.95,6.52,6.52,0,0,1-2-4.85V43.9a6.78,6.78,0,0,1,2-4.8,6.3,6.3,0,0,1,4.7-2.1,6.78,6.78,0,0,1,4.85,2,6.29,6.29,0,0,1,2.05,4.75Zm0,34.7a6.83,6.83,0,0,1-1.9,4.9,6.33,6.33,0,0,1-4.8,2,6.83,6.83,0,0,1-6.9-6.9V78.6a6.83,6.83,0,0,1,6.7-6.7,7,7,0,0,1,4.9,1.85,6.16,6.16,0,0,1,2,4.75ZM346,50.4V45.8c-.2-1.87-.66-2.8-1.4-2.8s-1.1,1-1.1,2.9v4.5c0,1.93.44,2.9,1.3,2.9S346,52.33,346,50.4Zm0,34.8V80.6c-.2-1.87-.66-2.8-1.4-2.8s-1.1,1-1.1,2.9v4.5c0,2,.44,3,1.3,3S346,87.2,346,85.2Z"/></g></g></svg>